<svg width="293" height="68" viewBox="0 0 293 68" fill="none" xmlns="http://www.w3.org/2000/svg">
<mask id="mask0" mask-type="alpha" maskUnits="userSpaceOnUse" x="0" y="0" width="293" height="68">
<path d="M0 0H292.181V68H0V0Z" fill="#58BF38"/>
</mask>
<g mask="url(#mask0)">
<path d="M90.8435 79.7402C89.3075 116.434 60.5584 135.95 43.6875 136.001C26.8167 136.053 -2.82105 116.753 -2.93024 80.0263C-3.03944 43.2996 26.4657 4.24266 43.2921 3.00181C64.5101 1.4371 92.0737 50.3531 90.8435 79.7402Z" fill="white"/>
<path d="M64.655 30.2111V113L21.9788 111.927V31.2365C21.9788 27.8982 22.7925 24.3327 25.5394 22.4356C28.8919 20.1203 32.0055 20.9716 34.0294 22.9377C35.8241 24.6812 36.0292 27.3794 36.0292 29.8815V65.4152C40.6868 61.6057 50.1831 65.4064 51.1319 66.4899V30.6487C51.1319 27.6773 51.7465 24.5305 53.9916 22.584C57.0998 19.8891 60.0108 20.8433 62.1707 22.8521C64.1441 24.6873 64.655 27.5162 64.655 30.2111Z" fill="#F2C94C"/>
<path d="M12.8323 41.0318C30.372 40.4638 49.7944 73.0991 55.2145 92.7021L41.5965 94.7016C38.0005 76.4943 26.2913 51.9315 12.8323 41.0318Z" fill="#54B900"/>
<path d="M8.88375 60.6783C28.5104 57.9785 54.0543 92.3344 62.3849 113.705L47.3252 117.551C41.2023 97.5327 25.2427 71.3328 8.88375 60.6783Z" fill="#54B900"/>
<path d="M39.1081 49C56.0534 53.6218 65.2729 90.5674 64.8341 110.92L51.2304 108.823C53.0141 90.3429 48.8584 63.3925 39.1081 49Z" fill="#54B900"/>
<path d="M53.2674 53.0001C70.5287 56.2041 82.6965 92.2634 83.9003 112.584L70.1729 111.62C70.4605 93.054 64.1457 66.5376 53.2674 53.0001Z" fill="#54B900"/>
</g>
</svg>
