<svg width="44" height="44" viewBox="0 0 44 44" fill="none" xmlns="http://www.w3.org/2000/svg">
<path fill-rule="evenodd" clip-rule="evenodd" d="M18 8H10C8.89543 8 8 8.89543 8 10V18C8 19.1046 8.89543 20 10 20H18C19.1046 20 20 19.1046 20 18V10C20 8.89543 19.1046 8 18 8ZM10 18V10H18V18H10Z" fill="#556068"/>
<path fill-rule="evenodd" clip-rule="evenodd" d="M32 14V16H22V14H32Z" fill="#556068"/>
<path fill-rule="evenodd" clip-rule="evenodd" d="M36 10V12H22V10H36Z" fill="#556068"/>
<path fill-rule="evenodd" clip-rule="evenodd" d="M18 24H10C8.89543 24 8 24.8954 8 26V34C8 35.1046 8.89543 36 10 36H18C19.1046 36 20 35.1046 20 34V26C20 24.8954 19.1046 24 18 24ZM10 34V26H18V34H10Z" fill="#556068"/>
<path fill-rule="evenodd" clip-rule="evenodd" d="M32 30V32H22V30H32Z" fill="#556068"/>
<path fill-rule="evenodd" clip-rule="evenodd" d="M36 26V28H22V26H36Z" fill="#556068"/>
</svg>
