<svg width="44" height="44" viewBox="0 0 44 44" fill="none" xmlns="http://www.w3.org/2000/svg">
<path fill-rule="evenodd" clip-rule="evenodd" d="M13.8182 25H30.1818C31.186 25 32 25.8954 32 27V29C32 30.1046 31.186 31 30.1818 31H13.8182C12.814 31 12 30.1046 12 29V27C12 25.8954 12.814 25 13.8182 25ZM14 27V29H30V27H14ZM28 33H16V35H28V33Z" fill="#556068"/>
<path fill-rule="evenodd" clip-rule="evenodd" d="M20 13H32V15H20V13Z" fill="#556068"/>
<path fill-rule="evenodd" clip-rule="evenodd" d="M30 14H32V18H30V14Z" fill="#556068"/>
<path fill-rule="evenodd" clip-rule="evenodd" d="M26 14H28V18H26V14Z" fill="#556068"/>
<path fill-rule="evenodd" clip-rule="evenodd" d="M17 17C18.6569 17 20 15.6569 20 14C20 12.3431 18.6569 11 17 11C15.3431 11 14 12.3431 14 14C14 15.6569 15.3431 17 17 17ZM17 19C19.7614 19 22 16.7614 22 14C22 11.2386 19.7614 9 17 9C14.2386 9 12 11.2386 12 14C12 16.7614 14.2386 19 17 19Z" fill="#556068"/>
</svg>
