<svg width="44" height="44" viewBox="0 0 44 44" fill="none" xmlns="http://www.w3.org/2000/svg">
<path fill-rule="evenodd" clip-rule="evenodd" d="M28 32V34H16V32H28Z" fill="#556068"/>
<path fill-rule="evenodd" clip-rule="evenodd" d="M22 30C15.9249 30 11 25.0751 11 19C11 12.9249 15.9249 8 22 8C28.0751 8 33 12.9249 33 19C33 25.0751 28.0751 30 22 30ZM29.3995 24.1246C30.4086 22.6703 31 20.9042 31 19C31 14.0294 26.9706 10 22 10C17.0294 10 13 14.0294 13 19C13 20.9042 13.5914 22.6703 14.6005 24.1246C15.726 22.6381 18.3706 22 22 22C25.6294 22 28.274 22.6381 29.3995 24.1246ZM27.9647 25.7398C27.672 24.6874 25.5694 24 22 24C18.4306 24 16.328 24.6874 16.0353 25.7398C17.6233 27.1462 19.7119 28 22 28C24.2881 28 26.3767 27.1462 27.9647 25.7398ZM22 22C19.7609 22 18 20.4274 18 17C18 14.7558 19.5791 13 22 13C24.4142 13 26 14.9216 26 17.2C26 20.4796 24.2181 22 22 22ZM20 17C20 19.2693 20.8182 20 22 20C23.1777 20 24 19.2984 24 17.2C24 15.9504 23.2157 15 22 15C20.7337 15 20 15.8158 20 17Z" fill="#556068"/>
</svg>
