<svg width="44" height="44" viewBox="0 0 44 44" fill="none" xmlns="http://www.w3.org/2000/svg">
<path fill-rule="evenodd" clip-rule="evenodd" d="M22 30C15.9249 30 11 25.0751 11 19C11 12.9249 15.9249 8 22 8C28.0751 8 33 12.9249 33 19C33 25.0751 28.0751 30 22 30ZM22 28C26.9706 28 31 23.9706 31 19C31 14.0294 26.9706 10 22 10C17.0294 10 13 14.0294 13 19C13 23.9706 17.0294 28 22 28ZM27 18H23V14H21V18H17V20H21V24H23V20H27V18Z" fill="#556068"/>
<path fill-rule="evenodd" clip-rule="evenodd" d="M28 32V34H16V32H28Z" fill="#556068"/>
</svg>
