<svg width="44" height="44" viewBox="0 0 44 44" fill="none" xmlns="http://www.w3.org/2000/svg">
<path fill-rule="evenodd" clip-rule="evenodd" d="M13.8182 29H30.1818C31.186 29 32 29.8954 32 31V33C32 34.1046 31.186 35 30.1818 35H13.8182C12.814 35 12 34.1046 12 33V31C12 29.8954 12.814 29 13.8182 29ZM14 31V33H30V31H14ZM28 37H16V39H28V37Z" fill="#556068"/>
<path fill-rule="evenodd" clip-rule="evenodd" d="M22 25C20.2754 25 18.613 24.562 17.1405 23.7418L12.9053 24.0947L13.2582 19.8595C12.438 18.387 12 16.7246 12 15C12 9.47715 16.4772 5 22 5C27.5228 5 32 9.47715 32 15C32 20.5228 27.5228 25 22 25ZM17.885 21.8621L17.6084 21.6958L15.0947 21.9053L15.3042 19.3916L15.1379 19.115C14.397 17.8824 14 16.4715 14 15C14 10.5817 17.5817 7 22 7C26.4183 7 30 10.5817 30 15C30 19.4183 26.4183 23 22 23C20.5285 23 19.1176 22.603 17.885 21.8621ZM21.9997 19.9983C21.4472 19.9983 20.9993 19.5506 20.9993 18.9983C20.9993 18.4461 21.4472 17.9983 21.9997 17.9983C22.5521 17.9983 23 18.4461 23 18.9983C23 19.5506 22.5521 19.9983 21.9997 19.9983ZM21 17H23V16C23 16.0024 23.0047 15.9972 23.0154 15.9854C23.0417 15.9565 23.1039 15.888 23.2205 15.7955C23.3207 15.716 23.3517 15.6954 23.6048 15.535C24.4661 14.989 25 14.0396 25 13C25 11.3431 23.6569 10 22 10C20.3431 10 19 11.3431 19 13H21C21 12.4477 21.4477 12 22 12C22.5523 12 23 12.4477 23 13C23 13.3473 22.8225 13.6629 22.534 13.8458C22.2102 14.0511 22.1564 14.0867 21.9775 14.2286C21.3827 14.7005 21 15.2627 21 16V17Z" fill="#556068"/>
</svg>
