<svg width="44" height="44" viewBox="0 0 44 44" fill="none" xmlns="http://www.w3.org/2000/svg">
<path fill-rule="evenodd" clip-rule="evenodd" d="M13 30C13 28.3431 11.6569 27 10 27C8.34315 27 7 28.3431 7 30C7 31.6569 8.34315 33 10 33C11.6569 33 13 31.6569 13 30ZM9 30C9 29.4477 9.44772 29 10 29C10.5523 29 11 29.4477 11 30C11 30.5523 10.5523 31 10 31C9.44772 31 9 30.5523 9 30Z" fill="#556068"/>
<path fill-rule="evenodd" clip-rule="evenodd" d="M21 30C21 28.3431 19.6569 27 18 27C16.3431 27 15 28.3431 15 30C15 31.6569 16.3431 33 18 33C19.6569 33 21 31.6569 21 30ZM17 30C17 29.4477 17.4477 29 18 29C18.5523 29 19 29.4477 19 30C19 30.5523 18.5523 31 18 31C17.4477 31 17 30.5523 17 30Z" fill="#556068"/>
<path fill-rule="evenodd" clip-rule="evenodd" d="M29 30C29 28.3431 27.6569 27 26 27C24.3431 27 23 28.3431 23 30C23 31.6569 24.3431 33 26 33C27.6569 33 29 31.6569 29 30ZM25 30C25 29.4477 25.4477 29 26 29C26.5523 29 27 29.4477 27 30C27 30.5523 26.5523 31 26 31C25.4477 31 25 30.5523 25 30Z" fill="#556068"/>
<path fill-rule="evenodd" clip-rule="evenodd" d="M37 30C37 28.3431 35.6569 27 34 27C32.3431 27 31 28.3431 31 30C31 31.6569 32.3431 33 34 33C35.6569 33 37 31.6569 37 30ZM33 30C33 29.4477 33.4477 29 34 29C34.5523 29 35 29.4477 35 30C35 30.5523 34.5523 31 34 31C33.4477 31 33 30.5523 33 30Z" fill="#556068"/>
<path fill-rule="evenodd" clip-rule="evenodd" d="M19 15V13C19 11.3431 20.3431 10 22 10C23.6569 10 25 11.3431 25 13V15C26.1046 15 27 15.8954 27 17V21C27 22.1046 26.1046 23 25 23H19C17.8954 23 17 22.1046 17 21V17C17 15.8954 17.8954 15 19 15ZM23 13V15H21V13C21 12.4477 21.4477 12 22 12C22.5523 12 23 12.4477 23 13ZM19 21V17H25V21H19ZM21 19C21 19.5523 21.4477 20 22 20C22.5523 20 23 19.5523 23 19C23 18.4477 22.5523 18 22 18C21.4477 18 21 18.4477 21 19Z" fill="#556068"/>
</svg>
