<svg width="44" height="44" viewBox="0 0 44 44" fill="none" xmlns="http://www.w3.org/2000/svg">
<path fill-rule="evenodd" clip-rule="evenodd" d="M30.1818 18H13.8182C12.814 18 12 18.8954 12 20V22C12 23.1046 12.814 24 13.8182 24H30.1818C31.186 24 32 23.1046 32 22V20C32 18.8954 31.186 18 30.1818 18ZM14 22V20H30V22H14Z" fill="#556068"/>
<path fill-rule="evenodd" clip-rule="evenodd" d="M32 28V30H18V28H32Z" fill="#556068"/>
<path fill-rule="evenodd" clip-rule="evenodd" d="M14 31C12.8954 31 12 30.1046 12 29C12 27.8954 12.8954 27 14 27C15.1046 27 16 27.8954 16 29C16 30.1046 15.1046 31 14 31Z" fill="#556068"/>
<path fill-rule="evenodd" clip-rule="evenodd" d="M32 35V37H29V35H32Z" fill="#556068"/>
<path fill-rule="evenodd" clip-rule="evenodd" d="M25 38C23.8954 38 23 37.1046 23 36C23 34.8954 23.8954 34 25 34C26.1046 34 27 34.8954 27 36C27 37.1046 26.1046 38 25 38Z" fill="#556068"/>
<path fill-rule="evenodd" clip-rule="evenodd" d="M21 35V37H12V35H21Z" fill="#556068"/>
<path fill-rule="evenodd" clip-rule="evenodd" d="M18.1716 11.8284C19.4895 13.1464 21.4983 13.3524 23.0322 12.4464L25.9497 15.364L27.364 13.9497L24.4464 11.0322C25.3524 9.49831 25.1464 7.48951 23.8284 6.17157C22.2663 4.60948 19.7337 4.60948 18.1716 6.17157C16.6095 7.73367 16.6095 10.2663 18.1716 11.8284ZM19.5858 7.58579C18.8047 8.36683 18.8047 9.63317 19.5858 10.4142C20.3668 11.1953 21.6332 11.1953 22.4142 10.4142C23.1953 9.63317 23.1953 8.36683 22.4142 7.58579C21.6332 6.80474 20.3668 6.80474 19.5858 7.58579Z" fill="#556068"/>
</svg>
