<svg width="44" height="44" viewBox="0 0 44 44" fill="none" xmlns="http://www.w3.org/2000/svg">
<path fill-rule="evenodd" clip-rule="evenodd" d="M30 7H14C12.8954 7 12 7.89543 12 9V25C12 26.1046 12.8954 27 14 27H30C31.1046 27 32 26.1046 32 25V9C32 7.89543 31.1046 7 30 7ZM14 18V9H30V13L28 11L21.5 17.5L18 14L14 18ZM14 20.8284V25H26.1715L18 16.8284L14 20.8284ZM29 25H30V15.8285L28 13.8284L22.9142 18.9142L29 25Z" fill="#556068"/>
<path fill-rule="evenodd" clip-rule="evenodd" d="M32 33V31H12V33H32ZM26 37V35H12V37H26Z" fill="#556068"/>
<path fill-rule="evenodd" clip-rule="evenodd" d="M37.9333 16.8L35 14.6L36.2 13L41.2667 16.8L36.2 20.6L35 19L37.9333 16.8Z" fill="#556068"/>
<path fill-rule="evenodd" clip-rule="evenodd" d="M6.33339 16.8L9.26672 14.6L8.06672 13L3.00006 16.8L8.06672 20.6L9.26672 19L6.33339 16.8Z" fill="#556068"/>
</svg>
